# xmcd
#
# Track frame offsets:
#	150
#	17637
#	43200
#	60438
#	83853
#	107135
#	126839
#	141673
#	161237
#	183277
#	201927
#	222898
#
# Disc length: 3285 seconds
# Revision: 0
# Processed by: cddbd v1.5.2PL0 Copyright (c) Steve Scherf et al.
# Submitted via: dBpowerAMP V12.0
#
DISCID=b20cd30c
DTITLE=BluesCorp - It Is What It Is 
DYEAR=2015
DGENRE=Blues
TTITLE0=Barefoot Blues
TTITLE1=Mother Earth
TTITLE2=Up and Left
TTITLE3=It Is What It Is
TTITLE4=Woe Is Me
TTITLE5=Misery
TTITLE6=Sweet Pea
TTITLE7=Money Song
TTITLE8=Living The Dream
TTITLE9=Every Time
TTITLE10=Chronic Case
TTITLE11=Sincerely Blue
EXTD=
EXTT0=
EXTT1=
EXTT2=
EXTT3=
EXTT4=
EXTT5=
EXTT6=
EXTT7=
EXTT8=
EXTT9=
EXTT10=
EXTT11=
PLAYORDER=
